<?xml version="1.0" standalone="no"?>
<!DOCTYPE svg PUBLIC "-//W3C//DTD SVG 20010904//EN"
 "http://www.w3.org/TR/2001/REC-SVG-20010904/DTD/svg10.dtd">
<svg version="1.0" xmlns="http://www.w3.org/2000/svg"
 width="300.000000pt" height="300.000000pt" viewBox="0 0 300.000000 300.000000"
 preserveAspectRatio="xMidYMid meet">
<metadata>
Created by potrace 1.11, written by Peter Selinger 2001-2013
</metadata>
<g transform="translate(0.000000,300.000000) scale(0.100000,-0.100000)"
fill="#000000" stroke="none">
<path d="M488 2725 c-3 -13 -1 -22 3 -19 5 3 9 0 9 -5 0 -6 -5 -11 -11 -11 -8
0 -7 -6 2 -17 8 -9 9 -14 3 -10 -6 3 -11 0 -11 -8 0 -8 4 -12 9 -9 11 7 10 -3
-3 -28 -8 -15 -8 -19 0 -14 6 4 11 2 11 -3 0 -6 -5 -11 -12 -11 -9 0 -9 -3 0
-12 16 -16 15 -31 0 -22 -9 5 -9 2 1 -9 8 -11 9 -17 2 -17 -7 0 -8 -8 -1 -26
12 -31 12 -37 2 -30 -4 2 -8 -4 -8 -14 0 -10 4 -16 8 -14 4 3 8 0 8 -5 0 -6
-5 -11 -12 -11 -9 0 -9 -3 0 -12 16 -16 15 -31 0 -22 -9 5 -9 2 1 -9 11 -14
11 -17 0 -17 -10 0 -10 -3 -1 -12 16 -16 15 -31 0 -22 -9 5 -9 2 1 -9 11 -14
11 -17 0 -17 -10 0 -10 -3 -1 -12 16 -16 15 -31 0 -22 -9 5 -9 2 1 -9 11 -14
11 -17 0 -17 -10 0 -10 -3 -1 -12 16 -16 15 -31 0 -22 -9 5 -9 2 1 -9 11 -14
11 -17 0 -17 -10 0 -10 -3 -1 -12 16 -16 15 -31 0 -22 -9 5 -9 2 1 -9 11 -14
11 -17 0 -17 -10 0 -10 -3 -1 -12 16 -16 15 -31 0 -22 -9 5 -9 2 1 -9 10 -13
10 -17 1 -17 -10 0 -10 -3 0 -15 7 -9 9 -22 5 -32 -11 -24 -13 -73 -3 -67 4 3
8 1 8 -5 0 -5 -4 -12 -9 -16 -10 -5 -8 -27 5 -67 5 -16 3 -19 -7 -12 -12 6
-12 5 0 -9 11 -14 11 -17 0 -17 -10 0 -10 -3 -1 -12 16 -16 15 -31 0 -22 -9 5
-9 2 1 -9 11 -14 11 -17 0 -17 -10 0 -10 -3 -1 -12 16 -16 15 -31 0 -22 -9 5
-9 2 1 -9 11 -14 11 -17 0 -17 -10 0 -10 -3 -1 -12 16 -16 15 -31 0 -22 -9 5
-9 2 1 -9 11 -14 11 -17 0 -17 -10 0 -10 -3 -1 -12 16 -16 15 -31 0 -22 -9 5
-9 2 1 -9 10 -13 10 -17 1 -17 -10 0 -10 -3 0 -15 7 -9 9 -22 5 -32 -11 -24
-13 -73 -3 -67 4 3 8 1 8 -5 0 -5 -4 -12 -9 -16 -10 -5 -8 -27 5 -67 5 -16 3
-19 -7 -12 -12 6 -12 5 0 -9 11 -14 11 -17 0 -17 -10 0 -10 -3 -1 -12 16 -16
15 -31 0 -22 -9 5 -9 2 1 -9 11 -14 11 -17 0 -17 -10 0 -10 -3 -1 -12 16 -16
15 -31 0 -22 -9 5 -9 2 1 -9 11 -14 11 -17 0 -17 -10 0 -10 -3 -1 -12 16 -16
15 -31 0 -22 -9 5 -9 2 1 -9 11 -14 11 -17 0 -17 -10 0 -10 -3 -1 -12 16 -16
15 -31 0 -22 -9 5 -9 2 1 -9 10 -13 10 -17 1 -17 -9 0 -10 -3 -1 -13 8 -10 7
-17 -2 -27 -9 -10 -9 -11 1 -6 6 4 12 2 12 -3 0 -6 -5 -11 -12 -11 -9 0 -9 -3
0 -12 16 -16 15 -31 0 -22 -9 5 -9 2 1 -9 11 -14 11 -17 0 -17 -10 0 -10 -3
-1 -12 16 -16 15 -31 0 -22 -9 5 -9 2 1 -9 7 -9 9 -17 4 -17 -5 0 -10 -7 -10
-15 0 -8 4 -12 9 -9 4 3 8 0 8 -5 0 -6 -5 -11 -12 -11 -9 0 -9 -3 0 -12 16
-16 15 -31 0 -22 -9 5 -9 2 1 -9 11 -14 11 -17 0 -17 -10 0 -10 -3 -1 -12 16
-16 15 -31 0 -22 -9 5 -9 2 1 -9 7 -9 9 -17 4 -17 -5 0 -10 -7 -10 -15 0 -8 4
-12 9 -9 4 3 8 0 8 -5 0 -6 -5 -11 -12 -11 -9 0 -9 -3 0 -12 16 -16 15 -31 0
-22 -9 5 -9 2 1 -9 11 -14 11 -17 0 -17 -10 0 -10 -3 -1 -12 16 -16 15 -31 0
-22 -9 5 -9 2 1 -9 7 -9 9 -17 4 -17 -5 0 -10 -7 -10 -15 0 -8 4 -12 9 -9 4 3
8 0 8 -5 0 -6 -5 -11 -12 -11 -9 0 -9 -3 0 -12 16 -16 15 -31 0 -22 -9 5 -9 2
1 -9 11 -14 11 -17 0 -17 -10 0 -10 -3 -1 -12 16 -16 15 -31 0 -22 -9 5 -9 2
1 -9 11 -14 11 -17 0 -17 -10 0 -10 -3 -1 -12 16 -16 15 -31 0 -22 -9 5 -9 2
1 -9 11 -14 11 -17 0 -17 -10 0 -10 -3 -1 -12 16 -16 15 -31 0 -22 -9 5 -9 2
1 -9 11 -14 11 -17 0 -17 -10 0 -10 -3 -1 -12 14 -14 16 -32 3 -24 -5 4 -8 -2
-6 -11 2 -10 4 -21 4 -26 1 -4 133 -6 294 -5 l292 3 0 247 c-1 151 3 244 9
241 5 -4 6 -1 0 8 -12 19 -12 559 0 552 5 -4 6 0 0 8 -4 8 -9 92 -9 187 0 147
2 172 14 170 8 -2 18 -12 21 -23 3 -11 17 -38 30 -60 14 -22 24 -43 22 -47 -1
-5 2 -8 7 -8 5 0 20 -21 33 -47 13 -27 30 -53 38 -60 8 -7 12 -13 7 -13 -4 0
4 -18 18 -40 14 -22 25 -44 25 -50 0 -6 5 -8 12 -4 8 5 9 2 5 -9 -3 -10 -2
-17 2 -17 5 0 21 -23 36 -52 15 -29 39 -70 53 -93 15 -22 27 -42 27 -45 1 -12
40 -70 47 -70 4 0 8 -9 8 -19 0 -11 4 -22 9 -26 6 -3 17 -20 27 -38 9 -17 23
-44 30 -58 8 -15 21 -32 29 -39 8 -7 15 -21 15 -31 0 -10 5 -21 11 -24 5 -4
15 -17 20 -28 5 -12 29 -53 54 -92 24 -38 53 -89 63 -111 11 -23 25 -45 31
-48 6 -4 9 -12 6 -17 -4 -5 -2 -9 3 -9 4 0 16 -16 25 -35 9 -19 22 -35 29 -35
9 0 8 -3 -2 -10 -8 -5 -10 -10 -4 -10 6 0 30 -34 53 -75 l43 -75 299 0 299 0
0 1250 0 1250 -290 0 c-225 0 -290 -3 -291 -12 -5 -71 -3 -168 4 -168 4 0 5
-5 1 -11 -10 -17 -12 -109 -2 -109 5 0 6 -5 2 -11 -10 -16 -11 -149 -2 -149 5
0 5 -8 0 -17 -9 -20 -8 -54 2 -71 3 -6 3 -13 -1 -15 -10 -6 -9 -90 1 -105 3
-6 3 -13 -1 -15 -10 -6 -9 -90 1 -105 3 -6 3 -13 -1 -15 -7 -5 -9 -76 -3 -102
1 -5 1 -12 0 -15 -6 -15 -4 -123 2 -127 5 -2 3 -14 -3 -26 -9 -16 -9 -22 -1
-25 7 -2 9 -10 4 -20 -9 -19 -8 -54 2 -70 3 -6 3 -13 -1 -15 -7 -5 -9 -76 -3
-102 1 -5 2 -12 1 -15 -7 -18 -6 -98 1 -94 4 3 5 -2 2 -10 -8 -21 -27 3 -79
99 -21 39 -41 72 -44 75 -3 3 -12 15 -18 28 -7 12 -19 32 -25 45 -7 12 -19 30
-27 40 -8 9 -10 17 -5 17 5 0 4 4 -1 8 -6 4 -22 28 -35 55 -14 26 -28 47 -32
47 -5 0 -8 7 -8 15 0 8 -5 15 -11 15 -5 0 -7 4 -4 10 3 5 -3 17 -14 26 -10 9
-17 22 -15 29 3 7 -2 15 -11 19 -9 3 -13 10 -10 16 3 5 1 10 -4 10 -6 0 -11 7
-11 15 0 8 -4 15 -10 15 -5 0 -10 9 -10 20 0 11 -3 20 -8 20 -4 0 -18 20 -31
45 -13 25 -28 45 -33 45 -5 0 -6 4 -3 10 5 8 -24 59 -45 80 -3 3 -6 12 -8 20
-2 8 -8 17 -13 18 -5 2 -7 8 -3 13 3 5 0 9 -6 9 -6 0 -16 14 -21 30 -6 17 -15
30 -21 30 -5 0 -6 5 -3 10 3 6 1 10 -4 10 -6 0 -11 7 -11 15 0 8 -5 15 -11 15
-5 0 -7 4 -4 10 3 5 -3 20 -14 32 -12 12 -21 27 -21 34 0 7 -6 19 -14 26 -15
16 -47 74 -45 84 0 4 -3 10 -8 13 -12 8 -73 109 -73 120 0 5 -7 14 -15 21 -9
7 -13 15 -11 17 5 5 -3 15 -32 48 -7 8 -10 15 -6 15 3 0 1 7 -6 15 -11 13 -58
15 -310 15 l-298 0 -4 -25z m1596 -1651 c3 -8 2 -12 -4 -9 -6 3 -10 10 -10 16
0 14 7 11 14 -7z m-1089 -34 c-3 -5 -12 -10 -18 -10 -7 0 -6 4 3 10 19 12 23
12 15 0z m1175 4 c0 -8 -19 -13 -24 -6 -3 5 1 9 9 9 8 0 15 -2 15 -3z m-1285
-33 c3 -5 2 -12 -3 -15 -5 -3 -9 1 -9 9 0 17 3 19 12 6z m-58 -60 c0 -11 -5
-18 -9 -15 -4 3 -5 11 -1 19 7 21 12 19 10 -4z m1439 4 c-1 -8 -5 -17 -8 -21
-5 -4 -4 16 1 34 3 9 9 -1 7 -13z m81 -4 c0 -11 -5 -18 -9 -15 -4 3 -5 11 -1
19 7 21 12 19 10 -4z m83 9 c0 -5 -2 -10 -4 -10 -3 0 -8 5 -11 10 -3 6 -1 10
4 10 6 0 11 -4 11 -10z m-1806 -18 c3 -5 -1 -9 -9 -9 -8 0 -12 4 -9 9 3 4 7 8
9 8 2 0 6 -4 9 -8z m106 -2 c0 -5 -2 -10 -4 -10 -3 0 -8 5 -11 10 -3 6 -1 10
4 10 6 0 11 -4 11 -10z m936 -2 c3 -4 -1 -5 -10 -4 -8 1 -18 5 -22 8 -3 4 1 5
10 4 8 -1 18 -5 22 -8z m208 4 c3 -5 -1 -9 -9 -9 -8 0 -12 4 -9 9 3 4 7 8 9 8
2 0 6 -4 9 -8z m120 0 c3 -5 -1 -9 -9 -9 -8 0 -12 4 -9 9 3 4 7 8 9 8 2 0 6
-4 9 -8z m56 -2 c0 -5 -2 -10 -4 -10 -3 0 -8 5 -11 10 -3 6 -1 10 4 10 6 0 11
-4 11 -10z m135 1 c-9 -8 -36 -10 -30 -2 2 4 11 8 20 8 8 0 13 -3 10 -6z
m-1199 -37 c1 -9 0 -13 -4 -10 -3 4 -7 14 -8 22 -1 9 0 13 4 10 3 -4 7 -14 8
-22z m960 11 c-1 -8 -5 -17 -8 -21 -5 -4 -4 16 1 34 3 9 9 -1 7 -13z m424 5
c0 -5 -5 -10 -11 -10 -5 0 -7 5 -4 10 3 6 8 10 11 10 2 0 4 -4 4 -10z m75 1
c3 -5 2 -12 -3 -15 -5 -3 -9 1 -9 9 0 17 3 19 12 6z m-1740 -10 c3 -5 2 -12
-3 -15 -5 -3 -9 1 -9 9 0 17 3 19 12 6z m-80 -10 c-9 -8 -36 -10 -30 -2 2 4
11 8 20 8 8 0 13 -3 10 -6z m169 1 c3 -5 -1 -9 -9 -9 -8 0 -12 4 -9 9 3 4 7 8
9 8 2 0 6 -4 9 -8z m72 -18 c1 -9 0 -13 -4 -10 -3 4 -7 14 -8 22 -1 9 0 13 4
10 3 -4 7 -14 8 -22z m79 17 c3 -5 2 -12 -3 -15 -5 -3 -9 1 -9 9 0 17 3 19 12
6z m801 -3 c3 -4 -1 -5 -10 -4 -8 1 -18 5 -22 8 -3 4 1 5 10 4 8 -1 18 -5 22
-8z m59 3 c-9 -8 -36 -10 -30 -2 2 4 11 8 20 8 8 0 13 -3 10 -6z m115 3 c0 -8
-19 -13 -24 -6 -3 5 1 9 9 9 8 0 15 -2 15 -3z m125 -3 c-9 -8 -36 -10 -30 -2
2 4 11 8 20 8 8 0 13 -3 10 -6z m-1091 -39 c3 -5 -1 -9 -9 -9 -8 0 -12 4 -9 9
3 4 7 8 9 8 2 0 6 -4 9 -8z m31 -2 c3 -5 1 -10 -4 -10 -6 0 -11 5 -11 10 0 6
2 10 4 10 3 0 8 -4 11 -10z m1160 0 c3 -5 1 -10 -4 -10 -6 0 -11 5 -11 10 0 6
2 10 4 10 3 0 8 -4 11 -10z m80 1 c3 -5 2 -12 -3 -15 -5 -3 -9 1 -9 9 0 17 3
19 12 6z m85 -1 c0 -5 -2 -10 -4 -10 -3 0 -8 5 -11 10 -3 6 -1 10 4 10 6 0 11
-4 11 -10z m90 4 c0 -8 -19 -13 -24 -6 -3 5 1 9 9 9 8 0 15 -2 15 -3z m30 -4
c0 -5 -2 -10 -4 -10 -3 0 -8 5 -11 10 -3 6 -1 10 4 10 6 0 11 -4 11 -10z
m-660 -21 c0 -5 -4 -9 -8 -9 -5 0 -9 7 -9 15 0 8 4 12 9 9 4 -3 8 -9 8 -15z
m-995 1 c3 -6 -1 -7 -9 -4 -18 7 -21 14 -7 14 6 0 13 -4 16 -10z m910 -8 c-3
-3 -11 0 -18 7 -9 10 -8 11 6 5 10 -3 15 -9 12 -12z m280 9 c3 -5 2 -12 -3
-15 -5 -3 -9 1 -9 9 0 17 3 19 12 6z m45 5 c0 -3 -4 -8 -10 -11 -5 -3 -10 -1
-10 4 0 6 5 11 10 11 6 0 10 -2 10 -4z m34 -12 c3 -8 2 -12 -4 -9 -6 3 -10 10
-10 16 0 14 7 11 14 -7z m-1419 -14 c3 -5 1 -10 -4 -10 -6 0 -11 5 -11 10 0 6
2 10 4 10 3 0 8 -4 11 -10z m45 0 c0 -5 -2 -10 -4 -10 -3 0 -8 5 -11 10 -3 6
-1 10 4 10 6 0 11 -4 11 -10z m40 0 c0 -5 -2 -10 -4 -10 -3 0 -8 5 -11 10 -3
6 -1 10 4 10 6 0 11 -4 11 -10z m1520 0 c0 -5 -5 -10 -11 -10 -5 0 -7 5 -4 10
3 6 8 10 11 10 2 0 4 -4 4 -10z m40 6 c0 -3 -4 -8 -10 -11 -5 -3 -10 -1 -10 4
0 6 5 11 10 11 6 0 10 -2 10 -4z m35 -6 c3 -5 1 -10 -4 -10 -6 0 -11 5 -11 10
0 6 2 10 4 10 3 0 8 -4 11 -10z m45 0 c0 -5 -2 -10 -4 -10 -3 0 -8 5 -11 10
-3 6 -1 10 4 10 6 0 11 -4 11 -10z m40 0 c0 -5 -2 -10 -4 -10 -3 0 -8 5 -11
10 -3 6 -1 10 4 10 6 0 11 -4 11 -10z m-1575 -20 c-3 -5 -12 -10 -18 -10 -7 0
-6 4 3 10 19 12 23 12 15 0z m959 -2 c-3 -4 -9 -8 -15 -8 -5 0 -9 4 -9 8 0 5
7 9 15 9 8 0 12 -4 9 -9z m70 -4 c3 -8 2 -12 -4 -9 -6 3 -10 10 -10 16 0 14 7
11 14 -7z m-1214 -8 c0 -3 -4 -8 -10 -11 -5 -3 -10 -1 -10 4 0 6 5 11 10 11 6
0 10 -2 10 -4z m320 -6 c0 -5 -5 -10 -11 -10 -5 0 -7 5 -4 10 3 6 8 10 11 10
2 0 4 -4 4 -10z m40 6 c0 -3 -4 -8 -10 -11 -5 -3 -10 -1 -10 4 0 6 5 11 10 11
6 0 10 -2 10 -4z m974 -36 c-6 -6 -10 -3 -10 10 0 13 4 16 10 10 7 -7 7 -13 0
-20z m86 26 c0 -2 -8 -10 -17 -17 -16 -13 -17 -12 -4 4 13 16 21 21 21 13z
m-280 -10 c0 -3 -4 -8 -10 -11 -5 -3 -10 -1 -10 4 0 6 5 11 10 11 6 0 10 -2
10 -4z m237 -11 c0 -8 -4 -12 -9 -9 -4 3 -8 9 -8 15 0 5 4 9 8 9 5 0 9 -7 9
-15z m-1319 -40 c-3 -3 -9 2 -12 12 -6 14 -5 15 5 6 7 -7 10 -15 7 -18z m1682
21 c0 -2 -8 -10 -17 -17 -16 -13 -17 -12 -4 4 13 16 21 21 21 13z m-1476 -14
c2 -4 -4 -8 -14 -8 -10 0 -16 4 -14 8 3 4 9 8 14 8 5 0 11 -4 14 -8z m966 4
c0 -2 -8 -10 -17 -17 -16 -13 -17 -12 -4 4 13 16 21 21 21 13z m84 -12 c3 -8
2 -12 -4 -9 -6 3 -10 10 -10 16 0 14 7 11 14 -7z m-957 -29 c0 -8 -4 -15 -9
-15 -10 0 -11 14 -1 23 9 10 10 9 10 -8z m1243 -6 c0 -5 -4 -9 -8 -9 -5 0 -9
7 -9 15 0 8 4 12 9 9 4 -3 8 -9 8 -15z m220 17 c0 -2 -6 -9 -14 -15 -11 -9
-16 -9 -22 0 -4 7 -3 9 4 5 6 -3 13 -2 17 4 6 10 15 14 15 6z m-505 -16 c3 -5
1 -10 -4 -10 -6 0 -11 5 -11 10 0 6 2 10 4 10 3 0 8 -4 11 -10z m-1018 -15 c0
-8 -4 -12 -9 -9 -5 3 -6 10 -3 15 9 13 12 11 12 -6z m959 -19 c-2 -38 -12 -39
-12 -1 0 18 3 32 7 30 3 -3 5 -15 5 -29z m-1192 16 c3 -5 -1 -9 -9 -9 -8 0
-15 4 -15 9 0 4 4 8 9 8 6 0 12 -4 15 -8z m1672 -17 c1 -8 -5 -20 -14 -27 -15
-11 -15 -11 -6 2 6 8 10 23 8 33 -1 11 0 16 4 13 3 -4 7 -13 8 -21z m-1398
-10 c-3 -3 -9 2 -12 12 -6 14 -5 15 5 6 7 -7 10 -15 7 -18z m856 -5 c-6 -6
-10 -3 -10 10 0 13 4 16 10 10 7 -7 7 -13 0 -20z m257 16 c-12 -14 -35 -16
-47 -3 -4 3 3 5 14 2 12 -2 24 0 27 6 4 5 9 9 12 9 3 0 0 -6 -6 -14z m-1473
-11 c3 -3 -4 -4 -16 -2 -12 2 -24 6 -28 10 -4 3 4 4 16 2 12 -2 25 -7 28 -10z
m396 7 c3 -5 -1 -9 -9 -9 -8 0 -12 4 -9 9 3 4 7 8 9 8 2 0 6 -4 9 -8z m926 -1
c0 -5 -8 -15 -17 -22 -16 -12 -17 -12 -6 2 7 9 10 19 6 22 -3 4 -1 7 5 7 7 0
12 -4 12 -9z m54 -2 c3 -3 -4 -5 -14 -6 -11 -1 -22 2 -24 6 -5 8 30 8 38 0z
m160 2 c-7 -8 -54 -9 -49 -1 2 3 15 6 29 6 14 0 23 -2 20 -5z m92 -3 c3 -4 -1
-5 -10 -4 -8 1 -18 5 -22 8 -3 4 1 5 10 4 8 -1 18 -5 22 -8z m90 -3 c-1 -8 -5
-17 -8 -21 -5 -4 -4 16 1 34 3 9 9 -1 7 -13z m-1475 -12 c13 -16 12 -17 -3 -4
-10 7 -18 15 -18 17 0 8 8 3 21 -13z m79 13 c0 -2 -8 -10 -17 -17 -16 -13 -17
-12 -4 4 13 16 21 21 21 13z m-215 -53 c-18 -17 -18 -17 -6 0 11 14 11 20 0
35 -12 16 -12 16 6 0 19 -18 19 -18 0 -35z m-124 20 c13 -16 12 -17 -3 -4 -17
13 -22 21 -14 21 2 0 10 -8 17 -17z m35 -3 c0 -12 -4 -16 -9 -11 -5 5 -6 14
-3 20 10 15 12 14 12 -9z m1441 7 c0 -8 -6 -14 -14 -14 -9 0 -10 4 -2 14 6 7
12 13 14 13 1 0 2 -6 2 -13z m157 -17 c-6 -6 -10 -3 -10 10 0 13 4 16 10 10 7
-7 7 -13 0 -20z m203 15 c0 -8 -3 -13 -5 -10 -3 3 -12 -1 -21 -7 -10 -8 -9 -4
3 10 23 26 23 26 23 7z m-1657 1 c0 -2 -7 -7 -16 -10 -8 -3 -12 -2 -9 4 6 10
25 14 25 6z m1064 -5 c-8 -8 -34 -10 -38 -2 -3 4 6 7 19 7 14 0 22 -2 19 -5z
m296 -16 c14 -19 14 -19 -2 -6 -10 7 -18 18 -18 24 0 6 1 8 3 6 1 -2 9 -13 17
-24z m145 16 c-9 -8 -36 -10 -30 -2 2 4 11 8 20 8 8 0 13 -3 10 -6z m-264 -18
c13 -16 12 -17 -3 -4 -17 13 -22 21 -14 21 2 0 10 -8 17 -17z m-1083 -12 c-7
-9 -13 -18 -15 -20 -1 -2 -1 5 0 16 0 11 7 20 14 20 10 0 10 -4 1 -16z m52 14
c0 -1 -12 -12 -27 -26 -20 -17 -23 -18 -10 -3 9 11 15 23 12 26 -3 2 2 5 10 5
8 0 15 -1 15 -2z m960 0 c0 -1 -12 -12 -27 -26 -20 -17 -23 -18 -10 -3 9 11
15 23 12 26 -3 2 2 5 10 5 8 0 15 -1 15 -2z m24 -4 c3 -4 -4 -17 -17 -27 -22
-19 -22 -19 -4 2 9 11 14 24 10 27 -3 4 -4 7 0 7 3 0 8 -4 11 -9z m404 -10
c-7 -9 -13 -18 -15 -20 -1 -2 -1 5 0 16 0 11 7 20 14 20 10 0 10 -4 1 -16z
m-1746 -6 c2 3 5 -2 5 -10 0 -19 0 -19 -23 7 -12 14 -13 18 -3 10 9 -6 18 -10
21 -7z m54 -7 c12 -14 13 -18 3 -10 -9 6 -18 10 -21 7 -2 -3 -5 2 -5 10 0 19
0 19 23 -7z m74 18 c0 -2 -8 -10 -17 -17 -16 -13 -17 -12 -4 4 13 16 21 21 21
13z m81 -13 c13 -16 12 -17 -3 -4 -10 7 -18 15 -18 17 0 8 8 3 21 -13z m1040
0 c13 -16 12 -17 -3 -4 -10 7 -18 15 -18 17 0 8 8 3 21 -13z m196 2 c0 -8 -3
-13 -5 -10 -3 3 -12 -1 -21 -7 -10 -8 -9 -4 3 10 23 26 23 26 23 7z m49 -7
c12 -14 13 -18 3 -10 -9 6 -18 10 -21 7 -2 -3 -5 2 -5 10 0 19 0 19 23 -7z
m74 18 c0 -2 -8 -10 -17 -17 -16 -13 -17 -12 -4 4 13 16 21 21 21 13z m230
-11 c-7 -9 -15 -13 -18 -10 -3 3 -12 -1 -21 -8 -14 -11 -14 -10 -2 5 7 10 17
16 21 13 5 -3 11 -1 15 5 3 5 9 10 12 10 3 0 0 -7 -7 -15z m-1649 -8 c-6 -8
-9 -16 -6 -19 3 -2 -2 -5 -10 -5 -13 0 -13 3 2 19 19 21 31 25 14 5z m109 9
c0 -2 -8 -10 -17 -17 -16 -13 -17 -12 -4 4 13 16 21 21 21 13z m120 0 c0 -2
-8 -10 -17 -17 -16 -13 -17 -12 -4 4 13 16 21 21 21 13z m1211 -9 c-6 -8 -9
-16 -6 -19 3 -2 -2 -5 -10 -5 -13 0 -13 3 2 19 19 21 31 25 14 5z m239 -1 c0
-2 -8 -10 -17 -17 -16 -13 -17 -12 -4 4 13 16 21 21 21 13z m-1849 -23 c13
-16 12 -17 -3 -4 -17 13 -22 21 -14 21 2 0 10 -8 17 -17z m213 9 c2 -4 -4 -8
-14 -8 -10 0 -16 4 -14 8 3 4 9 8 14 8 5 0 11 -4 14 -8z m1040 0 c3 -5 -1 -9
-9 -9 -8 0 -15 4 -15 9 0 4 4 8 9 8 6 0 12 -4 15 -8z m157 -5 c-6 -8 -9 -16
-6 -19 3 -2 -12 -4 -33 -3 -20 1 -42 -2 -48 -7 -6 -4 -11 -2 -11 6 0 9 13 12
39 11 22 -1 43 4 49 12 6 7 14 13 16 13 3 0 0 -6 -6 -13z m154 -5 c-3 -3 -11
0 -18 7 -9 10 -8 11 6 5 10 -3 15 -9 12 -12z m90 9 c-9 -8 -36 -10 -30 -2 2 4
11 8 20 8 8 0 13 -3 10 -6z m81 -3 c3 -4 -1 -5 -10 -4 -8 1 -18 5 -22 8 -3 4
1 5 10 4 8 -1 18 -5 22 -8z m-1650 -10 c5 4 6 3 2 -2 -4 -5 -2 -16 4 -25 10
-12 7 -12 -8 2 -11 9 -23 15 -26 12 -2 -3 -5 2 -5 10 0 10 4 12 12 5 7 -5 16
-6 21 -2z m1380 -8 c0 -12 -4 -16 -9 -11 -5 5 -6 14 -3 20 10 15 12 14 12 -9z
m60 8 c5 4 6 3 2 -2 -4 -5 -2 -16 4 -25 9 -11 6 -10 -9 2 -16 14 -22 15 -26 5
-3 -7 -4 -3 -4 9 1 15 5 19 13 13 6 -6 15 -6 20 -2z m280 -3 c-1 -8 -8 -21
-16 -28 -10 -10 -11 -9 -4 3 5 8 9 18 10 23 3 14 4 17 8 17 2 0 3 -7 2 -15z
m-1521 -25 c2 -12 1 -20 -2 -16 -4 4 -8 16 -10 28 -4 28 6 18 12 -12z m109 18
c-3 -4 -9 -8 -15 -8 -5 0 -9 4 -9 8 0 5 7 9 15 9 8 0 12 -4 9 -9z m1177 -16
c-9 -3 -7 -10 6 -26 18 -21 18 -21 -3 -3 -24 20 -28 48 -5 39 11 -4 11 -7 2
-10z m156 -14 c4 -28 -6 -18 -12 12 -2 12 -1 20 2 16 4 -4 8 -16 10 -28z
m-1592 12 c-3 -5 -12 -10 -18 -10 -7 0 -6 4 3 10 19 12 23 12 15 0z m30 1 c3
-5 2 -12 -3 -15 -5 -3 -9 1 -9 9 0 17 3 19 12 6z m160 -9 c-3 -3 -11 0 -18 7
-9 10 -8 11 6 5 10 -3 15 -9 12 -12z m1295 13 c0 -2 -6 -8 -13 -14 -10 -8 -14
-7 -14 2 0 8 6 14 14 14 7 0 13 -1 13 -2z m145 -13 c-3 -3 -11 0 -18 7 -9 10
-8 11 6 5 10 -3 15 -9 12 -12z m-1695 -7 c5 3 12 0 16 -7 4 -7 4 -10 -1 -6 -4
4 -13 4 -19 -2 -8 -6 -12 -2 -13 13 0 12 1 16 4 9 3 -6 9 -10 13 -7z m1347 9
c-3 -3 -12 -4 -19 -1 -8 3 -5 6 6 6 11 1 17 -2 13 -5z m28 -3 c3 -5 2 -12 -3
-15 -5 -3 -9 1 -9 9 0 17 3 19 12 6z m-1455 -5 c0 -2 -7 -7 -16 -10 -8 -3 -12
-2 -9 4 6 10 25 14 25 6z m425 -6 c-3 -5 -12 -10 -18 -10 -7 0 -6 4 3 10 19
12 23 12 15 0z m1105 5 c0 -2 -6 -8 -13 -14 -10 -8 -14 -7 -14 2 0 8 6 14 14
14 7 0 13 -1 13 -2z m184 -3 c3 -5 -1 -9 -9 -9 -8 0 -12 4 -9 9 3 4 7 8 9 8 2
0 6 -4 9 -8z m-1559 -12 c3 -6 -1 -7 -9 -4 -18 7 -21 14 -7 14 6 0 13 -4 16
-10z m-127 -16 c5 3 9 -1 9 -8 0 -20 -23 -15 -37 8 -12 19 -12 20 3 8 9 -8 20
-11 25 -8z m244 2 c10 6 11 4 0 -7 -10 -11 -15 -10 -30 6 -15 17 -15 18 0 6 9
-7 23 -9 30 -5z m100 -5 c-5 -13 -3 -14 9 -4 13 10 16 10 16 -2 0 -8 -5 -11
-10 -8 -6 4 -8 0 -5 -9 4 -8 1 -15 -7 -15 -8 0 -11 7 -7 15 3 10 1 13 -6 8 -6
-3 -14 -1 -18 5 -5 8 -3 9 6 4 9 -6 12 -4 8 7 -4 8 -1 15 7 15 8 0 11 -7 7
-16z m965 13 c-3 -3 -12 -4 -19 -1 -8 3 -5 6 6 6 11 1 17 -2 13 -5z m84 -7
c-6 -8 -8 -17 -4 -20 3 -4 2 -7 -4 -7 -6 0 -16 7 -23 15 -11 13 -10 14 3 10 8
-4 18 -2 22 4 3 6 9 11 12 11 3 0 0 -6 -6 -13z m391 -6 c-5 -13 -3 -14 9 -4
13 10 16 10 16 -2 0 -8 -5 -11 -10 -8 -6 4 -8 0 -5 -9 4 -8 1 -15 -7 -15 -8 0
-11 7 -7 16 5 14 4 14 -14 1 -17 -14 -18 -14 -6 2 8 9 11 21 8 26 -3 5 1 9 8
9 9 0 12 -7 8 -16z m-99 1 c4 9 6 9 6 1 2 -20 -16 -24 -30 -5 -13 15 -12 16 3
4 13 -10 17 -10 21 0z m-1536 -21 c0 -11 -5 -18 -9 -15 -4 3 -5 11 -1 19 7 21
12 19 10 -4z m1180 4 c4 -4 2 -5 -4 -1 -8 4 -13 2 -14 -6 0 -10 -2 -11 -6 0
-4 10 -8 10 -21 0 -15 -11 -15 -11 -4 4 13 17 36 18 49 3z m153 0 c11 -13 10
-14 -5 -9 -14 6 -16 4 -10 -7 5 -8 4 -11 0 -6 -12 10 -15 37 -5 37 4 0 13 -7
20 -15z m110 11 c0 -2 -7 -7 -16 -10 -8 -3 -12 -2 -9 4 6 10 25 14 25 6z m45
-6 c-3 -5 -12 -10 -18 -10 -7 0 -6 4 3 10 19 12 23 12 15 0z m-1572 -15 c-3
-9 -8 -14 -10 -11 -3 3 -2 9 2 15 9 16 15 13 8 -4z m204 0 c0 -8 -4 -12 -9 -9
-5 3 -6 10 -3 15 9 13 12 11 12 -6z m1282 2 c8 -10 7 -14 -4 -14 -8 0 -11 5
-8 10 4 6 -1 8 -11 4 -10 -4 -15 -3 -11 3 8 14 20 12 34 -3z m176 3 c4 -6 -1
-7 -11 -3 -10 4 -15 2 -11 -4 3 -5 0 -10 -8 -10 -11 0 -12 4 -4 14 14 15 26
17 34 3z m96 -27 c-12 -20 -14 -14 -5 12 4 9 9 14 11 11 3 -2 0 -13 -6 -23z
m-1711 -4 c0 -4 -6 -11 -12 -15 -7 -4 -10 -4 -6 1 4 4 0 14 -10 21 -15 12 -15
12 6 7 12 -3 22 -9 22 -14z m106 -1 c-9 -5 -13 -15 -10 -21 4 -7 3 -9 -1 -4
-5 4 -9 16 -10 26 -1 13 4 17 18 13 17 -4 18 -6 3 -14z m1207 8 c3 3 4 -1 3
-10 -1 -8 -6 -19 -11 -23 -4 -5 -5 -2 0 6 6 10 4 13 -6 9 -10 -4 -15 1 -15 13
0 12 4 15 12 9 6 -6 13 -7 17 -4z m-1465 -21 c-3 -3 -9 2 -12 12 -6 14 -5 15
5 6 7 -7 10 -15 7 -18z m355 6 c3 -13 1 -18 -9 -14 -7 2 -10 11 -7 19 7 19 10
18 16 -5z m1051 3 c3 -7 -2 -10 -15 -7 -22 6 -26 20 -4 20 8 0 16 -6 19 -13z
m146 1 c0 -8 -4 -15 -10 -15 -5 0 -7 7 -4 15 4 8 8 15 10 15 2 0 4 -7 4 -15z
m94 -1 c3 -9 -1 -11 -11 -7 -12 5 -14 3 -8 -8 5 -8 4 -11 0 -6 -5 4 -10 13
-11 21 -2 16 24 17 30 0z m66 5 c0 -3 -9 -9 -19 -12 -13 -3 -18 0 -15 7 5 13
34 18 34 5z m78 -1 c-2 -7 4 -11 12 -10 8 2 12 0 7 -4 -11 -12 -47 -12 -54 -1
-3 6 -1 7 5 3 7 -4 12 -1 12 8 0 9 5 16 10 16 6 0 9 -6 8 -12z m-1710 -22 c-2
-1 -10 -7 -20 -14 -12 -10 -18 -10 -24 -1 -5 8 -3 9 6 4 10 -6 12 -4 7 7 -4
12 -1 14 14 11 11 -3 18 -6 17 -7z m98 -15 c-9 -14 -26 -14 -26 0 0 5 5 7 12
3 8 -5 9 -1 4 12 -5 14 -4 16 5 7 6 -6 8 -16 5 -22z m147 6 c4 3 7 1 7 -5 0
-17 -16 -15 -34 4 -22 22 -20 31 2 11 10 -10 22 -14 25 -10z m1417 -19 c-8 -7
-12 -9 -8 -4 4 5 2 18 -4 30 -10 20 -10 20 8 4 16 -15 16 -20 4 -30z m93 25
c-5 -12 -3 -14 8 -8 8 4 11 4 7 0 -5 -5 -19 -10 -33 -11 l-26 -3 23 19 c28 24
29 24 21 3z m-1710 -6 c4 3 7 1 7 -5 0 -17 -16 -15 -31 6 -12 15 -12 16 2 5 9
-7 19 -10 22 -6z m103 -13 c1 -9 0 -13 -4 -10 -3 4 -7 14 -8 22 -1 9 0 13 4
10 3 -4 7 -14 8 -22z m47 1 c-3 -9 -8 -14 -10 -11 -3 3 -2 9 2 15 9 16 15 13
8 -4z m102 5 c-3 -5 -12 -10 -18 -10 -7 0 -6 4 3 10 19 12 23 12 15 0z m1060
1 c3 -6 -3 -9 -14 -8 -11 0 -17 5 -15 9 7 11 22 10 29 -1z m75 -1 c0 -5 -2
-10 -4 -10 -3 0 -8 5 -11 10 -3 6 -1 10 4 10 6 0 11 -4 11 -10z m70 0 c-18
-12 -30 -13 -30 -2 0 4 10 9 22 9 18 2 20 0 8 -7z m38 -15 c-3 -3 -9 2 -12 12
-6 14 -5 15 5 6 7 -7 10 -15 7 -18z m95 10 c-3 -9 -8 -14 -10 -11 -3 3 -2 9 2
15 9 16 15 13 8 -4z m-1685 -20 c-3 -3 -9 2 -12 12 -6 14 -5 15 5 6 7 -7 10
-15 7 -18z m375 4 c-8 -8 -13 -7 -18 2 -5 8 -4 10 3 5 7 -4 12 -2 12 5 0 7 3
9 7 6 4 -4 2 -12 -4 -18z m-387 -16 c13 -20 13 -25 2 -16 -8 7 -18 10 -22 6
-4 -4 -4 1 0 11 6 15 4 17 -6 11 -9 -5 -11 -4 -6 3 10 16 11 16 32 -15z m206
3 c4 3 9 1 12 -4 8 -13 -35 -9 -59 6 -11 6 -15 12 -9 12 5 0 16 -6 23 -12 12
-11 13 -9 7 7 -6 18 -5 19 7 3 8 -10 16 -15 19 -12z m1248 17 c0 -5 -5 -15
-10 -23 -7 -12 -9 -10 -7 8 1 19 17 33 17 15z m197 0 c-4 -3 -1 -13 6 -22 11
-14 10 -14 -5 -2 -21 15 -23 31 -6 31 6 0 8 -3 5 -7z m-1553 -19 c5 -14 4 -15
-9 -4 -17 14 -19 20 -6 20 5 0 12 -7 15 -16z m236 12 c0 -3 -4 -8 -10 -11 -5
-3 -10 -1 -10 4 0 6 5 11 10 11 6 0 10 -2 10 -4z m1204 -12 c5 -14 4 -15 -9
-4 -17 14 -19 20 -6 20 5 0 12 -7 15 -16z m217 -11 c-12 -20 -14 -14 -5 12 4
9 9 14 11 11 3 -2 0 -13 -6 -23z m-1686 -3 c3 -5 -4 -6 -15 -3 -11 3 -22 9
-25 13 -3 5 4 6 15 3 11 -3 22 -9 25 -13z m60 10 c-3 -5 -1 -10 6 -10 7 0 10
-3 6 -6 -9 -9 -28 6 -22 17 4 5 8 9 11 9 3 0 2 -4 -1 -10z m1280 -8 c-3 -3
-11 0 -18 7 -9 10 -8 11 6 5 10 -3 15 -9 12 -12z m80 0 c-3 -3 -11 0 -18 7 -9
10 -8 11 6 5 10 -3 15 -9 12 -12z m80 8 c-3 -5 -1 -10 6 -10 7 0 10 -3 6 -6
-9 -9 -28 6 -22 17 4 5 8 9 11 9 3 0 2 -4 -1 -10z m58 -4 c4 -10 1 -13 -8 -9
-8 3 -12 9 -9 14 7 12 11 11 17 -5z m189 7 c-6 -2 -9 -10 -6 -15 4 -7 2 -8 -5
-4 -13 9 -5 26 12 25 9 0 8 -2 -1 -6z m-1557 -21 c-3 -3 -11 0 -18 7 -9 10 -8
11 6 5 10 -3 15 -9 12 -12z m50 8 c3 -6 -1 -7 -9 -4 -18 7 -21 14 -7 14 6 0
13 -4 16 -10z m1390 -8 c-3 -3 -11 0 -18 7 -9 10 -8 11 6 5 10 -3 15 -9 12
-12z"/>
</g>
</svg>
